<svg version="1" xmlns="http://www.w3.org/2000/svg" width="736" height="736" viewBox="0 0 552.000000 552.000000"><path d="M194.8 12.6c-.2.1-2.3.4-4.8.7-12.5 1.3-27.4 7.4-38.5 15.7-14.4 10.8-14.7 11.3-62.2 93.5-15.6 27.1-34.6 59.8-57.3 99C21.1 240.2 11 258 9.5 261-2 283.8-2.6 310.3 7.8 333.3c10.9 23.9 31.1 41 56.7 47.8 7.6 2 10.4 2.1 56.3 2.3 26.5.1 48.2 0 48.2-.1 0-.2-9.8-17.3-21.8-38.1-26.5-45.9-28.2-49.5-32.3-68.9-2.2-10.3-2.8-25.9-1.6-37.1 2-17.5 11.2-41.5 21.9-57 3.2-4.6 16.5-18.2 21.8-22.3 1.8-1.3 4.4-3.3 5.8-4.5 4.9-3.8 18.6-11.2 26.5-14.3 18.8-7.2 27.2-8 83-8.2 26.2 0 47.7-.3 47.7-.5 0-.9-8.4-15.7-25.8-45.4-.9-1.6-5.3-9.1-9.6-16.7-14.1-24.6-20.1-32.4-32.1-41.3-7.9-6-21.2-12.4-27-13.1-.5-.1-2-.5-3.1-1-4.3-1.6-26.5-3.5-27.6-2.3z"/><path d="M230.7 168.6c-.1.1-3.3.4-7.2.8-31.8 2.8-59.9 25.5-70.6 57-3.4 9.8-4 13.6-4.4 24.6-.3 10.9.8 18.9 4.1 29.1 2.7 8.1 8.2 17.8 70.4 124.9 12.3 21.2 23.4 40.5 24.8 43 2.1 3.7 6.2 10.7 11.2 19 .4.8 4.3 7.6 8.6 15 13.7 24.1 20 32.1 31.6 40.8 15.1 11.3 31.2 16.6 50.8 16.5 16.5-.1 29.8-3.6 43.5-11.6 6.6-3.9 8.9-5.7 16.3-13 7.7-7.5 9.4-10.2 26-38.7 7.1-12.4 13.9-24.1 15.1-26 1.1-1.9 2.8-4.9 3.7-6.5.9-1.7 11.6-20.1 23.7-41 37-63.7 46.8-80.8 50-86.5 1.6-3 3.3-6 3.8-6.5.4-.6 2.4-3.9 4.4-7.5 2.1-3.6 4.6-7.9 5.6-9.7 2.8-5 7.6-19.4 8.5-25.4.4-3 .8-8.5.9-12.3.9-39.6-27.2-75.3-66.5-84.4-5.6-1.3-24.1-1.5-130.3-1.6h-124zm127.8 67.9c15.6 1.4 34.2 10 46.8 21.5 18.5 17 28 39.6 27.2 65-.5 19.2-6.7 35.6-19 51-10.3 12.8-26.6 23.4-42.3 27.5-10.2 2.7-11.5 2.9-23.7 2.8-17.7-.1-33.4-4.9-47.2-14.5-6.3-4.3-16.2-14.1-20.4-20.3-1.9-2.8-3.6-5.2-3.9-5.5-1.1-1.1-6.8-13.7-8.3-18.5-3.3-10.5-5-29.1-3.2-36.8.3-1.2.7-3.5.9-5.1.9-5 4.8-16 8.1-22.2 13.1-24.8 35.2-40.4 63.4-44.8 7.7-1.2 9-1.2 21.6-.1z"/><path d="M338.9 272.5c-27.8 5.4-45.2 34-37.3 61.5 1.8 6.2 3.6 9.7 7.9 15.5 9.5 12.8 20.9 18.6 37.2 19.1 18.7.6 31.7-6.4 42.8-23.1 5.1-7.8 7.5-15.8 7.5-25.4 0-30.6-27.9-53.4-58.1-47.6z"/></svg>