<svg viewBox="0 0 59.51 7.58" xmlns="http://www.w3.org/2000/svg"><g fill="#fff"><path d="m4 0a2.16 2.16 0 0 1 0 4.32h-2.88v3.26h-1.12v-7.58zm0 3.19a1 1 0 0 0 0-2.06h-2.88v2.06z"/><path d="m8.35 7.58v-7.58h1.11v6.46h4.24v1.12z"/><path d="m15.69 7.58 4.39-7.58 4.39 7.57zm2-1.12h4.89l-2.5-4.22z"/><path d="m28 3.19 2.21-3.19h1.4l-3.17 4.43v3.15h-1.12v-3.33l-3.03-4.25h1.38z"/><path d="m40.89 0v7.58h-1.13v-5.82l-2.25 3.53h-.94l-2.25-3.53v5.82h-1.12v-7.58h1.32l2.48 4 2.56-4z"/><path d="m51.29 0-4.38 7.58-4.39-7.58zm-1.94 1.13h-4.89l2.45 4.22z"/><path d="m58.39 0h1.12v7.58h-1.12l-4.7-5.81v5.81h-1.12v-7.58h1.12l4.7 5.79z"/></g></svg>